# xmcd
#
# Track frame offsets: 
#        183
#        12733
#        21208
#        31958
#        45733
#        61733
#        74983
#        88133
#        116920
#        133983
#        149633
#        175283
#        189983
#        206333
#
# Disc length: 3032 seconds
#
# Revision: 1
# Processed by: cddbd v1.5.2PL0 Copyright (c) Steve Scherf et al.
# Submitted via: ExactAudioCopyFreeDBPlugin 1.0
#
DISCID=db0bd60e
DTITLE=David Bowie - Low
DYEAR=1900
DGENRE=Rock
TTITLE0=Speed of Life
TTITLE1=Breaking Glass
TTITLE2=What in the World
TTITLE3=Sound and Vision
TTITLE4=Always Crashing in the Same Car
TTITLE5=Be My Wife
TTITLE6=A New Career in a New Town
TTITLE7=Warszawa
TTITLE8=Art Decade
TTITLE9=Weeping Wall
TTITLE10=Subterraneans
TTITLE11=Some Are
TTITLE12=All Saints
TTITLE13=Sound and Vision (remixed version)
EXTD=
EXTT0=
EXTT1=
EXTT2=
EXTT3=
EXTT4=
EXTT5=
EXTT6=
EXTT7=
EXTT8=
EXTT9=
EXTT10=
EXTT11=
EXTT12=
EXTT13=
PLAYORDER=
